<?xml version="1.0" encoding="utf-8"?>
<!-- Generator: Adobe Illustrator 24.0.2, SVG Export Plug-In . SVG Version: 6.00 Build 0)  -->
<svg version="1.1" xmlns="http://www.w3.org/2000/svg" xmlns:xlink="http://www.w3.org/1999/xlink" x="0px" y="0px"
	 viewBox="0 0 500 500" style="enable-background:new 0 0 500 500;" xml:space="preserve">
<style type="text/css">
	.st0{display:none;}
	.st1{display:inline;fill:#4B4F50;}
	.st2{display:inline;}
	.st3{fill:#4B4F50;}
	.st4{fill:#F4F0EB;}
	.st5{display:inline;fill:none;stroke:#F4F0EB;stroke-width:3;stroke-linecap:round;stroke-linejoin:round;stroke-miterlimit:10;}
	.st6{fill:none;stroke:#F4F0EB;stroke-miterlimit:10;}
	.st7{fill:none;stroke:#4B4F50;stroke-miterlimit:10;}
	.st8{display:inline;fill:#F4F0EB;}
	.st9{display:inline;fill:none;stroke:#F4F0EB;stroke-width:1.2577;stroke-miterlimit:10;}
	.st10{fill:none;stroke:#4B4F50;stroke-width:0.7709;stroke-miterlimit:10;}
	.st11{fill:#F4F0EB;stroke:#4B4F50;stroke-width:1.5418;stroke-linecap:round;stroke-linejoin:round;stroke-miterlimit:10;}
	.st12{fill:none;stroke:#F4F0EB;stroke-width:0.7709;stroke-miterlimit:10;}
	.st13{fill:#F4F0EB;stroke:#4B4F50;stroke-width:1.2496;stroke-linecap:round;stroke-linejoin:round;stroke-miterlimit:10;}
	.st14{display:none;fill:#4B4F50;}
	.st15{font-family:'Museo-500';}
	.st16{font-size:36.7427px;}
	.st17{font-family:'Museo-300';}
	.st18{font-size:11px;}
	.st19{letter-spacing:13;}
	.st20{fill:none;stroke:#4B4F50;stroke-width:3;stroke-linecap:round;stroke-linejoin:round;stroke-miterlimit:10;}
	.st21{display:inline;fill:none;stroke:#F4F0EB;stroke-miterlimit:10;}
</style>
<g id="BACKGROUND">
</g>
<g id="OBJECTS">
	<g class="st0">
		<path class="st1" d="M162.41,196.8c0,1.66-1.34,3-3,3H51.06c-1.66,0-3-1.34-3-3v-64c0-1.66,1.34-3,3-3h108.35c1.66,0,3,1.34,3,3
			V196.8z"/>
		<g class="st2">
			<path class="st3" d="M85.1,130.42c0,1.66-1.34,3-3,3H55.2c-1.66,0-3-1.34-3-3v-16.45c0-1.66,1.34-3,3-3h26.9c1.66,0,3,1.34,3,3
				V130.42z"/>
			<path class="st4" d="M82.01,125c0,1.66-1.34,3-3,3H57.52c-1.66,0-3-1.34-3-3v-8.32c0-1.66,1.34-3,3-3h21.48c1.66,0,3,1.34,3,3
				V125z"/>
		</g>
		<line class="st5" x1="52.2" y1="147.93" x2="158.26" y2="147.93"/>
		<g class="st2">
			<circle class="st4" cx="105.23" cy="164.8" r="28.65"/>
			<circle class="st4" cx="105.23" cy="164.8" r="28.65"/>
			
				<ellipse transform="matrix(0.7071 -0.7071 0.7071 0.7071 -85.709 122.6788)" class="st3" cx="105.23" cy="164.8" rx="25.94" ry="25.94"/>
			<path class="st6" d="M125.75,164.8c0-11.33-9.19-20.52-20.52-20.52c-11.33,0-20.52,9.19-20.52,20.52
				c0,11.33,9.19,20.52,20.52,20.52C116.56,185.32,125.75,176.13,125.75,164.8z"/>
		</g>
	</g>
	<g class="st0">
		<path class="st1" d="M304.18,129.8H277.7l-9.41-6.48c0-1.66-1.34-3-3-3h-30.59c-1.66,0-3,1.34-3,3l-9.41,6.48h-8.8
			c0.11-0.26,0.17-0.55,0.17-0.85c0-1.21-0.98-2.18-2.18-2.18h-9.47c-1.21,0-2.18,0.98-2.18,2.18c0,0.3,0.06,0.59,0.17,0.85h-4.18
			c-1.66,0-3,1.34-3,3v64c0,1.66,1.34,3,3,3h108.35c1.66,0,3-1.34,3-3v-64C307.18,131.14,305.83,129.8,304.18,129.8z"/>
		<line class="st5" x1="189.37" y1="152.03" x2="310.63" y2="152.03"/>
		<g class="st2">
			
				<ellipse transform="matrix(0.4247 -0.9054 0.9054 0.4247 -15.2894 327.4622)" class="st3" cx="250" cy="175.76" rx="33.22" ry="33.22"/>
			
				<ellipse transform="matrix(0.9884 -0.1521 0.1521 0.9884 -23.8239 40.0688)" class="st4" cx="250" cy="175.76" rx="29.57" ry="29.57"/>
			<circle class="st3" cx="250" cy="175.76" r="23.3"/>
			
				<ellipse transform="matrix(0.9885 -0.1515 0.1515 0.9885 -23.7421 39.9039)" class="st4" cx="250" cy="175.76" rx="16.33" ry="16.33"/>
			<path class="st3" d="M256.92,175.76c0-3.82-3.1-6.92-6.92-6.92c-3.82,0-6.92,3.1-6.92,6.92c0,3.82,3.1,6.92,6.92,6.92
				C253.82,182.68,256.92,179.58,256.92,175.76z"/>
			
				<ellipse transform="matrix(0.431 -0.9024 0.9024 0.431 -16.345 325.6012)" class="st7" cx="250" cy="175.76" rx="10.05" ry="10.05"/>
		</g>
		<path class="st8" d="M262.6,123.21c0,0.51-0.41,0.92-0.92,0.92h-23.37c-0.5,0-0.91-0.41-0.91-0.92l0,0c0-0.5,0.41-0.91,0.91-0.91
			h23.37C262.19,122.3,262.6,122.71,262.6,123.21L262.6,123.21z"/>
		<path class="st8" d="M301.59,142.2c0,1.66-1.34,3-3,3h-12.37c-1.66,0-3-1.34-3-3v-3.72c0-1.66,1.34-3,3-3h12.37c1.66,0,3,1.34,3,3
			V142.2z"/>
	</g>
	<g class="st0">
		<path class="st1" d="M447.12,129.8h-29.95c-2.28-4.71-6.84-12.35-12.34-12.35h-0.44v-8.94c0-0.18-0.02-0.35-0.05-0.51h6.25
			c1.66,0,3-1.34,3-3V83.14c0-1.66-1.34-3-3-3h-35.29c-1.66,0-3,1.34-3,3v21.86c0,1.66,1.34,3,3,3h6.25
			c-0.03,0.17-0.05,0.34-0.05,0.51v8.94h-0.44c-5.51,0-10.06,7.64-12.34,12.35h-29.95c-1.66,0-3,1.34-3,3v64c0,1.66,1.34,3,3,3
			h108.35c1.66,0,3-1.34,3-3v-64C450.12,131.14,448.77,129.8,447.12,129.8z"/>
		<path class="st1" d="M356.6,130.42c0,1.66-1.34,3-3,3h-6.93c-1.66,0-3-1.34-3-3v-3.29c0-1.66,1.34-3,3-3h6.93c1.66,0,3,1.34,3,3
			V130.42z"/>
		<path class="st8" d="M409.9,95.76c0,1.36-1.1,2.46-2.46,2.46h-28.99c-1.36,0-2.46-1.1-2.46-2.46V85.09c0-1.36,1.1-2.46,2.46-2.46
			h28.99c1.36,0,2.46,1.1,2.46,2.46V95.76z"/>
		<circle class="st8" cx="392.94" cy="162.72" r="29.15"/>
		
			<ellipse transform="matrix(0.7071 -0.7071 0.7071 0.7071 0.0301 325.5092)" class="st1" cx="392.94" cy="162.72" rx="25.67" ry="25.67"/>
		<circle class="st9" cx="392.94" cy="162.72" r="21.33"/>
		<g class="st2">
			
				<ellipse transform="matrix(0.7071 -0.7071 0.7071 0.7071 0.0301 325.5092)" class="st6" cx="392.94" cy="162.72" rx="16.96" ry="16.96"/>
			<g>
				
					<ellipse transform="matrix(0.0248 -0.9997 0.9997 0.0248 220.5206 551.499)" class="st4" cx="392.94" cy="162.72" rx="7.35" ry="7.35"/>
				<path class="st6" d="M403.18,162.72c0-2.35-0.79-4.51-2.12-6.24"/>
				<path class="st6" d="M385.7,169.96c1.85,1.85,4.42,3,7.24,3c2.12,0,4.09-0.65,5.73-1.75"/>
			</g>
		</g>
		<path class="st8" d="M358.1,140.27c0,1.66-1.34,3-3,3h-8.44c-1.66,0-3-1.34-3-3v-1.79c0-1.66,1.34-3,3-3h8.44c1.66,0,3,1.34,3,3
			V140.27z"/>
	</g>
	<g class="st0">
		<g class="st2">
			<path class="st3" d="M132.12,395.78c0-21.86-17.73-39.58-39.59-39.58c-21.86,0-39.59,17.72-39.59,39.58s17.73,39.59,39.59,39.59
				C114.4,435.37,132.12,417.64,132.12,395.78z"/>
			<path class="st10" d="M135.26,395.78c0-23.59-19.13-42.72-42.72-42.72c-23.59,0-42.72,19.13-42.72,42.72
				c0,23.59,19.13,42.72,42.72,42.72C116.13,438.5,135.26,419.37,135.26,395.78z"/>
			<g>
				<path class="st11" d="M114.51,368.84c-3.5-2.86-7.58-5.04-12.02-6.37l-11.17,7.03l23.19,13.48l12.3,7.15
					C125.41,381.58,120.93,374.08,114.51,368.84z"/>
				<path class="st11" d="M92.54,361.01c-4.25,0-8.3,0.8-12.06,2.19c-3.45,1.28-6.63,3.07-9.47,5.3v13.79l20.31-12.79l11.17-7.03
					C99.33,361.53,96,361.01,92.54,361.01z"/>
				<path class="st11" d="M58.23,390.34c-0.28,1.78-0.47,3.58-0.47,5.44c0,1.86,0.19,3.66,0.47,5.44l12.78,8.05v-26.98V368.5
					C64.3,373.8,59.62,381.52,58.23,390.34z"/>
				<path class="st11" d="M126.81,390.13l-12.3-7.15v25.59v14.15c6.42-5.25,10.9-12.75,12.3-21.29c0.31-1.84,0.5-3.72,0.5-5.65
					C127.31,393.85,127.11,391.97,126.81,390.13z"/>
				<path class="st11" d="M91.32,422.06l-10.85,6.3c3.76,1.39,7.81,2.19,12.06,2.19c3.46,0,6.8-0.52,9.95-1.46
					c4.44-1.33,8.52-3.51,12.02-6.37v-14.15L91.32,422.06z"/>
				<path class="st11" d="M71.01,409.27l-12.78-8.05c1.39,8.82,6.07,16.54,12.78,21.83c2.83,2.24,6.02,4.03,9.46,5.3l10.85-6.3
					L71.01,409.27z"/>
			</g>
		</g>
		<g class="st2">
			<path class="st4" d="M109.06,395.78c0-9.13-7.4-16.53-16.53-16.53c-9.13,0-16.53,7.4-16.53,16.53c0,9.13,7.4,16.53,16.53,16.53
				C101.66,412.31,109.06,404.91,109.06,395.78z"/>
			<path class="st3" d="M106.42,395.78c0-7.67-6.22-13.88-13.88-13.88c-7.67,0-13.88,6.22-13.88,13.88
				c0,7.67,6.22,13.88,13.88,13.88C100.2,409.67,106.42,403.45,106.42,395.78z"/>
			<path class="st12" d="M103.88,392.89c-0.9-3.53-3.4-6.42-6.68-7.84"/>
			<path class="st12" d="M82.64,402.04c1.78,2.81,4.73,4.81,8.16,5.32"/>
		</g>
	</g>
	<g class="st0">
		<g class="st2">
			<g>
				<path class="st3" d="M239.88,395.78c0-21.86-17.73-39.58-39.59-39.58s-39.59,17.72-39.59,39.58s17.72,39.59,39.59,39.59
					S239.88,417.64,239.88,395.78z"/>
				<path class="st10" d="M243.02,395.78c0-23.59-19.13-42.72-42.72-42.72s-42.72,19.13-42.72,42.72
					c0,23.59,19.13,42.72,42.72,42.72S243.02,419.37,243.02,395.78z"/>
				<path class="st11" d="M234.57,390.13c-1.4-8.54-5.88-16.05-12.3-21.29c-3.5-2.86-7.58-5.04-12.02-6.37
					c-3.15-0.94-6.49-1.46-9.95-1.46c-4.25,0-8.3,0.8-12.06,2.19c-3.45,1.28-6.63,3.07-9.47,5.3c-6.71,5.3-11.39,13.01-12.78,21.83
					c-0.28,1.78-0.47,3.58-0.47,5.44c0,1.86,0.19,3.66,0.47,5.44c1.39,8.82,6.07,16.54,12.78,21.83c2.83,2.24,6.02,4.03,9.46,5.3
					c3.76,1.39,7.81,2.19,12.06,2.19c3.46,0,6.8-0.52,9.95-1.46c4.44-1.33,8.52-3.51,12.02-6.37c6.42-5.25,10.9-12.75,12.3-21.29
					c0.31-1.84,0.5-3.72,0.5-5.65C235.07,393.85,234.87,391.97,234.57,390.13z M218.15,406.15l-18.79,10.92l-16.46-10.37v-21.86
					l16.46-10.37l18.79,10.93V406.15z"/>
			</g>
			<g>
				<path class="st4" d="M216.82,395.78c0-9.13-7.4-16.53-16.53-16.53c-9.13,0-16.53,7.4-16.53,16.53c0,9.13,7.4,16.53,16.53,16.53
					C209.42,412.31,216.82,404.91,216.82,395.78z"/>
				<path class="st3" d="M214.18,395.78c0-7.67-6.22-13.88-13.88-13.88c-7.67,0-13.88,6.22-13.88,13.88
					c0,7.67,6.22,13.88,13.88,13.88C207.96,409.67,214.18,403.45,214.18,395.78z"/>
				<path class="st12" d="M211.64,392.89c-0.9-3.53-3.4-6.42-6.68-7.84"/>
				<path class="st12" d="M190.4,402.04c1.78,2.81,4.73,4.81,8.16,5.32"/>
			</g>
		</g>
		<g class="st2">
			<line class="st13" x1="182.89" y1="406.71" x2="182.89" y2="365.81"/>
			<line class="st13" x1="199.35" y1="417.08" x2="165.52" y2="395.78"/>
			<line class="st13" x1="218.15" y1="406.15" x2="183.77" y2="426.34"/>
			<line class="st13" x1="218.15" y1="385.41" x2="218.15" y2="425.63"/>
			<line class="st13" x1="199.35" y1="374.48" x2="235.07" y2="394.97"/>
			<line class="st13" x1="182.89" y1="384.85" x2="215.23" y2="364.39"/>
		</g>
	</g>
	<g>
		<g>
			<path class="st3" d="M345.96,242c0-50.42-40.88-91.29-91.3-91.29c-50.42,0-91.3,40.87-91.3,91.29s40.88,91.3,91.3,91.3
				C305.08,333.3,345.96,292.42,345.96,242z"/>
			<path class="st10" d="M353.19,242c0-54.41-44.12-98.53-98.53-98.53c-54.41,0-98.53,44.11-98.53,98.53
				c0,54.41,44.12,98.53,98.53,98.53C309.07,340.53,353.19,296.41,353.19,242z"/>
			<path class="st11" d="M333.7,228.97c-3.22-19.71-13.55-37.01-28.37-49.11c-8.07-6.6-17.47-11.63-27.72-14.68
				c-7.27-2.17-14.97-3.37-22.95-3.37c-9.79,0-19.14,1.84-27.82,5.05c-7.95,2.95-15.3,7.07-21.83,12.23
				c-15.47,12.23-26.26,30.01-29.46,50.36c-0.65,4.1-1.08,8.27-1.08,12.55c0,4.28,0.43,8.45,1.08,12.55
				c3.2,20.35,14,38.14,29.46,50.36c6.53,5.16,13.88,9.29,21.83,12.23c8.68,3.22,18.02,5.06,27.82,5.06c7.99,0,15.68-1.2,22.96-3.37
				c10.25-3.07,19.64-8.09,27.71-14.69c14.82-12.1,25.15-29.4,28.37-49.11c0.7-4.25,1.15-8.58,1.15-13.03
				C334.85,237.55,334.4,233.22,333.7,228.97z M281.67,257.59l-28.25,16.42l-24.74-15.58v-32.87l24.74-15.58l28.25,16.42V257.59z
				 M228.67,258.43v-90.25 M253.41,274.01l-77.3-47.74 M281.67,257.59l-79.06,45.33 M281.67,226.4v91.38 M253.41,209.98l80.28,45.05
				 M228.67,225.56l74.52-47.37"/>
		</g>
	</g>
	<g class="st0">
		<g class="st2">
			<path class="st3" d="M455.83,395.78c0-21.86-17.72-39.58-39.59-39.58c-21.86,0-39.59,17.72-39.59,39.58s17.72,39.59,39.59,39.59
				C438.1,435.37,455.83,417.64,455.83,395.78z"/>
			<path class="st10" d="M458.96,395.78c0-23.59-19.13-42.72-42.72-42.72c-23.59,0-42.72,19.13-42.72,42.72
				c0,23.59,19.13,42.72,42.72,42.72C439.83,438.5,458.96,419.37,458.96,395.78z"/>
			<path class="st11" d="M450.51,390.13c-1.4-8.54-5.88-16.05-12.3-21.29c-3.5-2.86-7.57-5.04-12.02-6.37
				c-3.15-0.94-6.49-1.46-9.95-1.46c-4.25,0-8.3,0.8-12.06,2.19c-3.45,1.28-6.63,3.07-9.47,5.3c-6.71,5.3-11.39,13.01-12.78,21.83
				c-0.28,1.78-0.47,3.58-0.47,5.44c0,1.86,0.19,3.66,0.47,5.44c1.39,8.82,6.07,16.54,12.78,21.83c2.83,2.24,6.02,4.03,9.46,5.3
				c3.76,1.39,7.81,2.19,12.06,2.19c3.46,0,6.8-0.52,9.95-1.46c4.44-1.33,8.52-3.51,12.02-6.37c6.42-5.25,10.9-12.75,12.3-21.29
				c0.3-1.84,0.5-3.72,0.5-5.65C451.01,393.85,450.82,391.97,450.51,390.13z M414.02,397.58V361.1 M416.22,398.96l-30.14-18.85
				 M418.72,397.5l-31.1,17.97 M418.72,394.74v35.75 M416.22,393.28l31.3,17.63 M414.02,394.66l30.42-19.19"/>
		</g>
	</g>
	<text transform="matrix(1 0 0 1 183.166 59.041)" class="st14 st15 st16">CAMERA</text>
	<text transform="matrix(1 0 0 1 161.0767 78.2944)" class="st0"><tspan x="0" y="0" class="st1 st17 st18 st19">COLLECTIO</tspan><tspan x="170.61" y="0" class="st1 st17 st18">N</tspan></text>
	<g class="st0">
		<g class="st2">
			<path class="st20" d="M48.06,297.46v12.8c0,1.66,1.34,3,3,3h12.8"/>
			<path class="st20" d="M162.41,259.05v-12.8c0-1.66-1.34-3-3-3h-12.8"/>
			<path class="st20" d="M63.85,243.26h-12.8c-1.66,0-3,1.34-3,3v12.8"/>
			<path class="st20" d="M146.61,313.26h12.8c1.66,0,3-1.34,3-3v-12.8"/>
		</g>
		<g class="st2">
			<path class="st3" d="M110.71,278.26c0-3.03-2.46-5.48-5.48-5.48c-3.03,0-5.48,2.45-5.48,5.48c0,3.03,2.46,5.48,5.48,5.48
				C108.26,283.74,110.71,281.29,110.71,278.26z"/>
			<path class="st20" d="M116.2,278.26c0-6.06-4.91-10.96-10.97-10.96"/>
			<path class="st20" d="M94.27,278.26c0,6.06,4.91,10.96,10.97,10.96"/>
		</g>
	</g>
	<g class="st0">
		<g class="st2">
			<path class="st20" d="M192.82,297.46v12.8c0,1.66,1.34,3,3,3h12.8"/>
			<path class="st20" d="M307.18,259.05v-12.8c0-1.66-1.34-3-3-3h-12.8"/>
			<path class="st20" d="M208.62,243.26h-12.8c-1.66,0-3,1.34-3,3v12.8"/>
			<path class="st20" d="M291.38,313.26h12.8c1.66,0,3-1.34,3-3v-12.8"/>
		</g>
		<g class="st2">
			<path class="st3" d="M299.28,252.68c0-1.43-1.16-2.59-2.59-2.59h-44.17v16.93c4.75,0.79,8.5,4.5,9.34,9.23h37.42V252.68z"/>
			<path class="st3" d="M248.52,267.06v-16.97h-45.21c-1.43,0-2.59,1.16-2.59,2.59v23.58h38.71
				C240.25,271.61,243.89,267.94,248.52,267.06z"/>
			<path class="st3" d="M252.52,289.49v16.93h44.17c1.43,0,2.59-1.16,2.59-2.59v-23.58h-37.42
				C261.02,284.99,257.27,288.7,252.52,289.49z"/>
			<path class="st3" d="M239.43,280.26h-38.71v23.58c0,1.43,1.16,2.59,2.59,2.59h45.21v-16.97
				C243.89,288.58,240.25,284.91,239.43,280.26z"/>
		</g>
		
			<ellipse transform="matrix(0.973 -0.2306 0.2306 0.973 -57.4146 65.3029)" class="st1" cx="250.64" cy="278.26" rx="8.74" ry="8.74"/>
		<path class="st21" d="M255.75,278.26c0-2.82-2.29-5.11-5.11-5.11c-2.82,0-5.11,2.29-5.11,5.11c0,2.82,2.29,5.11,5.11,5.11
			C253.46,283.36,255.75,281.08,255.75,278.26z"/>
	</g>
	<g class="st0">
		<g class="st2">
			<path class="st20" d="M336.71,297.46v12.8c0,1.66,1.34,3,3,3h12.8"/>
			<path class="st20" d="M451.07,259.05v-12.8c0-1.66-1.34-3-3-3h-12.8"/>
			<path class="st20" d="M352.51,243.26h-12.8c-1.66,0-3,1.34-3,3v12.8"/>
			<path class="st20" d="M435.27,313.26h12.8c1.66,0,3-1.34,3-3v-12.8"/>
		</g>
		<g class="st2">
			<path class="st3" d="M404.21,278.26c0-5.7-4.62-10.32-10.31-10.32c-5.7,0-10.32,4.62-10.32,10.32c0,5.7,4.62,10.32,10.32,10.32
				C399.59,288.57,404.21,283.95,404.21,278.26z"/>
			<path class="st6" d="M401.89,278.26c0-4.42-3.58-8-8-8c-4.42,0-8.01,3.58-8.01,8s3.58,8,8.01,8
				C398.31,286.26,401.89,282.68,401.89,278.26z"/>
			<line class="st20" x1="393.89" y1="264.25" x2="393.89" y2="292.27"/>
			<line class="st20" x1="407.9" y1="278.26" x2="379.88" y2="278.26"/>
		</g>
	</g>
</g>
<g id="DESIGNED_BY_FREEPIK" class="st0">
	<g class="st2">
		<g>
			<g>
				<path class="st3" d="M172.69,476.01v-0.18c-0.24,0.28-0.48,0.5-0.71,0.67c-0.23,0.17-0.49,0.31-0.76,0.4
					c-0.27,0.09-0.57,0.14-0.9,0.14c-0.43,0-0.83-0.09-1.2-0.27c-0.37-0.18-0.68-0.44-0.95-0.78c-0.27-0.34-0.47-0.73-0.61-1.19
					c-0.14-0.46-0.21-0.95-0.21-1.48c0-1.12,0.27-2,0.82-2.63c0.55-0.63,1.27-0.94,2.17-0.94c0.52,0,0.95,0.09,1.31,0.27
					c0.35,0.18,0.7,0.45,1.04,0.82v-2.65c0-0.37,0.07-0.65,0.22-0.84c0.15-0.19,0.36-0.28,0.63-0.28c0.27,0,0.48,0.09,0.63,0.26
					c0.15,0.17,0.22,0.43,0.22,0.77v7.93c0,0.34-0.08,0.6-0.24,0.77c-0.16,0.17-0.36,0.26-0.61,0.26c-0.25,0-0.45-0.09-0.61-0.26
					C172.77,476.59,172.69,476.33,172.69,476.01z M169.16,473.37c0,0.49,0.08,0.9,0.23,1.24c0.15,0.34,0.36,0.6,0.62,0.77
					c0.26,0.17,0.55,0.26,0.86,0.26c0.32,0,0.6-0.08,0.87-0.25c0.26-0.16,0.47-0.42,0.63-0.76c0.16-0.34,0.23-0.76,0.23-1.27
					c0-0.48-0.08-0.89-0.23-1.24c-0.16-0.34-0.37-0.61-0.63-0.79c-0.27-0.18-0.56-0.27-0.87-0.27c-0.33,0-0.62,0.09-0.88,0.28
					c-0.26,0.19-0.46,0.45-0.6,0.8C169.23,472.5,169.16,472.91,169.16,473.37z"/>
				<path class="st3" d="M180.62,473.82h-3.52c0,0.41,0.09,0.77,0.25,1.08c0.16,0.31,0.37,0.55,0.64,0.7
					c0.27,0.16,0.56,0.24,0.88,0.24c0.21,0,0.41-0.02,0.59-0.07c0.18-0.05,0.35-0.13,0.52-0.24c0.17-0.11,0.32-0.22,0.46-0.35
					c0.14-0.12,0.32-0.29,0.55-0.5c0.09-0.08,0.22-0.12,0.4-0.12c0.18,0,0.33,0.05,0.45,0.15c0.11,0.1,0.17,0.24,0.17,0.43
					c0,0.16-0.06,0.35-0.19,0.57c-0.13,0.22-0.32,0.43-0.58,0.63c-0.26,0.2-0.58,0.37-0.97,0.5c-0.39,0.13-0.83,0.2-1.34,0.2
					c-1.15,0-2.05-0.33-2.69-0.99c-0.64-0.66-0.96-1.55-0.96-2.68c0-0.53,0.08-1.03,0.24-1.48c0.16-0.46,0.39-0.84,0.69-1.17
					c0.3-0.32,0.68-0.57,1.12-0.75c0.44-0.17,0.93-0.26,1.48-0.26c0.7,0,1.3,0.15,1.81,0.45c0.5,0.3,0.88,0.68,1.13,1.15
					c0.25,0.47,0.38,0.95,0.38,1.43c0,0.46-0.13,0.75-0.39,0.88C181.45,473.75,181.09,473.82,180.62,473.82z M177.1,472.8h3.26
					c-0.04-0.62-0.21-1.08-0.5-1.38c-0.29-0.31-0.67-0.46-1.14-0.46c-0.45,0-0.81,0.16-1.1,0.46
					C177.34,471.74,177.16,472.19,177.1,472.8z"/>
				<path class="st3" d="M188.81,474.68c0,0.49-0.12,0.92-0.36,1.27c-0.24,0.35-0.6,0.62-1.07,0.8c-0.47,0.18-1.05,0.27-1.72,0.27
					c-0.65,0-1.2-0.1-1.66-0.3c-0.46-0.2-0.8-0.44-1.02-0.74c-0.22-0.3-0.33-0.59-0.33-0.89c0-0.2,0.07-0.37,0.21-0.51
					c0.14-0.14,0.32-0.21,0.53-0.21c0.19,0,0.33,0.05,0.43,0.14c0.1,0.09,0.2,0.22,0.29,0.39c0.18,0.32,0.41,0.56,0.66,0.72
					c0.26,0.16,0.61,0.24,1.05,0.24c0.36,0,0.66-0.08,0.89-0.24c0.23-0.16,0.35-0.34,0.35-0.55c0-0.32-0.12-0.55-0.36-0.69
					c-0.24-0.15-0.63-0.29-1.18-0.42c-0.62-0.15-1.12-0.32-1.51-0.49c-0.39-0.17-0.7-0.39-0.93-0.67c-0.23-0.28-0.35-0.62-0.35-1.02
					c0-0.36,0.11-0.7,0.32-1.02c0.22-0.32,0.53-0.57,0.95-0.77c0.42-0.19,0.92-0.29,1.52-0.29c0.47,0,0.88,0.05,1.25,0.15
					c0.37,0.09,0.68,0.23,0.93,0.39c0.25,0.16,0.44,0.34,0.57,0.54c0.13,0.2,0.19,0.39,0.19,0.58c0,0.21-0.07,0.37-0.21,0.51
					c-0.14,0.13-0.33,0.2-0.59,0.2c-0.18,0-0.34-0.05-0.47-0.16c-0.13-0.11-0.28-0.26-0.45-0.47c-0.14-0.18-0.29-0.32-0.48-0.42
					c-0.18-0.11-0.43-0.16-0.75-0.16c-0.32,0-0.59,0.07-0.81,0.21c-0.21,0.14-0.32,0.31-0.32,0.52c0,0.19,0.08,0.34,0.24,0.46
					c0.16,0.12,0.37,0.22,0.64,0.3c0.27,0.08,0.63,0.17,1.1,0.29c0.56,0.14,1.01,0.3,1.37,0.49c0.35,0.19,0.62,0.41,0.8,0.67
					C188.72,474.06,188.81,474.35,188.81,474.68z"/>
				<path class="st3" d="M190.65,468.89c-0.25,0-0.46-0.08-0.64-0.23c-0.18-0.15-0.27-0.37-0.27-0.65c0-0.25,0.09-0.46,0.27-0.63
					c0.18-0.17,0.39-0.25,0.64-0.25c0.23,0,0.44,0.07,0.62,0.22c0.18,0.15,0.27,0.37,0.27,0.65c0,0.28-0.09,0.49-0.26,0.65
					C191.1,468.81,190.89,468.89,190.65,468.89z M191.54,470.75v5.2c0,0.36-0.08,0.63-0.26,0.82c-0.17,0.18-0.39,0.28-0.65,0.28
					c-0.26,0-0.48-0.09-0.64-0.28c-0.16-0.19-0.25-0.46-0.25-0.81v-5.14c0-0.35,0.08-0.62,0.25-0.8c0.16-0.18,0.38-0.27,0.64-0.27
					c0.26,0,0.48,0.09,0.65,0.27C191.45,470.18,191.54,470.43,191.54,470.75z"/>
				<path class="st3" d="M199.41,471.04v5.22c0,0.6-0.06,1.11-0.19,1.54c-0.13,0.43-0.33,0.79-0.61,1.06
					c-0.28,0.28-0.65,0.49-1.1,0.63c-0.45,0.14-1.02,0.2-1.7,0.2c-0.62,0-1.17-0.08-1.66-0.26c-0.49-0.17-0.86-0.4-1.13-0.67
					c-0.26-0.27-0.4-0.56-0.4-0.85c0-0.22,0.07-0.4,0.22-0.54c0.15-0.14,0.33-0.21,0.54-0.21c0.26,0,0.49,0.12,0.69,0.35
					c0.1,0.12,0.2,0.24,0.3,0.36c0.1,0.12,0.22,0.22,0.34,0.31c0.13,0.09,0.28,0.15,0.45,0.19c0.17,0.04,0.38,0.06,0.61,0.06
					c0.47,0,0.83-0.07,1.08-0.2c0.26-0.13,0.44-0.31,0.54-0.54c0.1-0.23,0.16-0.48,0.18-0.75c0.02-0.27,0.03-0.69,0.04-1.28
					c-0.28,0.39-0.59,0.68-0.96,0.88c-0.36,0.2-0.79,0.3-1.29,0.3c-0.6,0-1.13-0.15-1.58-0.46c-0.45-0.31-0.8-0.74-1.04-1.29
					c-0.24-0.55-0.36-1.19-0.36-1.92c0-0.54,0.07-1.03,0.22-1.46c0.15-0.44,0.36-0.8,0.63-1.1c0.27-0.3,0.59-0.52,0.94-0.67
					c0.35-0.15,0.75-0.23,1.17-0.23c0.51,0,0.95,0.1,1.32,0.29c0.37,0.2,0.72,0.5,1.04,0.92v-0.24c0-0.31,0.08-0.55,0.23-0.72
					c0.15-0.17,0.35-0.26,0.59-0.26c0.35,0,0.58,0.11,0.69,0.34C199.35,470.29,199.41,470.62,199.41,471.04z M194.2,473.32
					c0,0.73,0.16,1.28,0.48,1.65c0.32,0.37,0.73,0.56,1.23,0.56c0.3,0,0.58-0.08,0.85-0.24c0.27-0.16,0.48-0.4,0.65-0.72
					c0.17-0.32,0.25-0.71,0.25-1.18c0-0.73-0.16-1.3-0.48-1.71c-0.32-0.41-0.75-0.61-1.27-0.61c-0.51,0-0.93,0.19-1.23,0.59
					C194.36,472.05,194.2,472.6,194.2,473.32z"/>
				<path class="st3" d="M202.27,470.72v0.22c0.31-0.42,0.66-0.72,1.04-0.92c0.38-0.2,0.81-0.29,1.29-0.29c0.47,0,0.9,0.1,1.27,0.31
					c0.37,0.21,0.65,0.5,0.84,0.87c0.12,0.22,0.2,0.46,0.23,0.71c0.04,0.25,0.05,0.58,0.05,0.97v3.34c0,0.36-0.08,0.63-0.25,0.82
					c-0.16,0.18-0.38,0.28-0.64,0.28c-0.27,0-0.49-0.09-0.65-0.28c-0.17-0.19-0.25-0.46-0.25-0.81v-3c0-0.59-0.08-1.05-0.25-1.36
					c-0.17-0.31-0.49-0.47-0.98-0.47c-0.32,0-0.61,0.1-0.88,0.29c-0.26,0.19-0.46,0.45-0.58,0.79c-0.09,0.27-0.13,0.77-0.13,1.5
					v2.25c0,0.37-0.09,0.64-0.25,0.82c-0.17,0.18-0.39,0.27-0.65,0.27c-0.26,0-0.47-0.09-0.64-0.28c-0.17-0.19-0.25-0.46-0.25-0.81
					v-5.2c0-0.34,0.08-0.6,0.22-0.77c0.15-0.17,0.35-0.25,0.61-0.25c0.16,0,0.3,0.04,0.43,0.11c0.13,0.08,0.23,0.19,0.31,0.34
					C202.23,470.32,202.27,470.5,202.27,470.72z"/>
				<path class="st3" d="M213.2,473.82h-3.52c0,0.41,0.09,0.77,0.25,1.08c0.16,0.31,0.37,0.55,0.64,0.7
					c0.27,0.16,0.56,0.24,0.88,0.24c0.21,0,0.41-0.02,0.59-0.07c0.18-0.05,0.35-0.13,0.52-0.24c0.17-0.11,0.32-0.22,0.46-0.35
					c0.14-0.12,0.32-0.29,0.55-0.5c0.09-0.08,0.22-0.12,0.4-0.12c0.18,0,0.33,0.05,0.45,0.15c0.11,0.1,0.17,0.24,0.17,0.43
					c0,0.16-0.06,0.35-0.19,0.57c-0.13,0.22-0.32,0.43-0.58,0.63c-0.26,0.2-0.58,0.37-0.97,0.5c-0.39,0.13-0.84,0.2-1.34,0.2
					c-1.15,0-2.05-0.33-2.69-0.99c-0.64-0.66-0.96-1.55-0.96-2.68c0-0.53,0.08-1.03,0.24-1.48c0.16-0.46,0.39-0.84,0.69-1.17
					c0.3-0.32,0.68-0.57,1.12-0.75c0.44-0.17,0.93-0.26,1.47-0.26c0.7,0,1.3,0.15,1.81,0.45c0.5,0.3,0.88,0.68,1.13,1.15
					c0.25,0.47,0.38,0.95,0.38,1.43c0,0.46-0.13,0.75-0.39,0.88C214.04,473.75,213.67,473.82,213.2,473.82z M209.69,472.8h3.26
					c-0.04-0.62-0.21-1.08-0.5-1.38c-0.29-0.31-0.67-0.46-1.14-0.46c-0.45,0-0.82,0.16-1.1,0.46
					C209.92,471.74,209.75,472.19,209.69,472.8z"/>
				<path class="st3" d="M220.53,476.01v-0.18c-0.24,0.28-0.48,0.5-0.71,0.67c-0.24,0.17-0.49,0.31-0.76,0.4
					c-0.27,0.09-0.57,0.14-0.9,0.14c-0.43,0-0.83-0.09-1.19-0.27c-0.37-0.18-0.68-0.44-0.95-0.78c-0.27-0.34-0.47-0.73-0.61-1.19
					c-0.14-0.46-0.21-0.95-0.21-1.48c0-1.12,0.27-2,0.82-2.63c0.55-0.63,1.27-0.94,2.17-0.94c0.52,0,0.96,0.09,1.31,0.27
					c0.36,0.18,0.7,0.45,1.04,0.82v-2.65c0-0.37,0.07-0.65,0.22-0.84c0.15-0.19,0.36-0.28,0.63-0.28c0.27,0,0.48,0.09,0.63,0.26
					c0.15,0.17,0.22,0.43,0.22,0.77v7.93c0,0.34-0.08,0.6-0.24,0.77c-0.16,0.17-0.36,0.26-0.61,0.26c-0.25,0-0.45-0.09-0.61-0.26
					C220.61,476.59,220.53,476.33,220.53,476.01z M217,473.37c0,0.49,0.08,0.9,0.23,1.24c0.15,0.34,0.36,0.6,0.62,0.77
					c0.26,0.17,0.55,0.26,0.86,0.26c0.32,0,0.61-0.08,0.87-0.25c0.26-0.16,0.47-0.42,0.63-0.76c0.16-0.34,0.23-0.76,0.23-1.27
					c0-0.48-0.08-0.89-0.23-1.24c-0.16-0.34-0.37-0.61-0.63-0.79c-0.27-0.18-0.56-0.27-0.87-0.27c-0.33,0-0.62,0.09-0.88,0.28
					c-0.26,0.19-0.46,0.45-0.6,0.8C217.07,472.5,217,472.91,217,473.37z"/>
				<path class="st3" d="M227.88,468.08v2.75c0.34-0.35,0.68-0.62,1.03-0.81c0.35-0.19,0.79-0.28,1.3-0.28
					c0.6,0,1.12,0.14,1.57,0.42c0.45,0.28,0.8,0.69,1.05,1.23c0.25,0.54,0.37,1.17,0.37,1.91c0,0.54-0.07,1.04-0.21,1.5
					c-0.14,0.46-0.34,0.85-0.6,1.18c-0.26,0.33-0.58,0.59-0.96,0.77c-0.38,0.18-0.79,0.27-1.24,0.27c-0.28,0-0.54-0.03-0.78-0.1
					c-0.24-0.07-0.45-0.15-0.62-0.26c-0.17-0.11-0.32-0.22-0.44-0.33c-0.12-0.11-0.28-0.28-0.48-0.51v0.18
					c0,0.34-0.08,0.59-0.24,0.77c-0.16,0.17-0.37,0.26-0.62,0.26c-0.25,0-0.46-0.08-0.61-0.26c-0.15-0.17-0.23-0.43-0.23-0.77v-7.85
					c0-0.36,0.07-0.64,0.22-0.83c0.15-0.19,0.35-0.28,0.62-0.28c0.28,0,0.49,0.09,0.64,0.27
					C227.81,467.5,227.88,467.75,227.88,468.08z M227.97,473.42c0,0.72,0.16,1.26,0.49,1.65c0.33,0.38,0.76,0.58,1.29,0.58
					c0.45,0,0.84-0.2,1.17-0.59c0.33-0.39,0.49-0.96,0.49-1.69c0-0.47-0.07-0.88-0.2-1.23c-0.14-0.34-0.33-0.61-0.58-0.79
					c-0.25-0.19-0.54-0.28-0.88-0.28c-0.34,0-0.65,0.09-0.92,0.28c-0.27,0.19-0.48,0.46-0.63,0.81
					C228.04,472.51,227.97,472.93,227.97,473.42z"/>
				<path class="st3" d="M235.54,477.26l0.16-0.4l-2.21-5.57c-0.14-0.32-0.21-0.55-0.21-0.7c0-0.15,0.04-0.29,0.12-0.43
					c0.08-0.13,0.19-0.24,0.33-0.32c0.14-0.08,0.28-0.12,0.43-0.12c0.26,0,0.45,0.08,0.59,0.25c0.13,0.16,0.25,0.4,0.35,0.71
					l1.52,4.42l1.44-4.12c0.11-0.33,0.22-0.59,0.31-0.78c0.09-0.19,0.19-0.31,0.29-0.38c0.1-0.07,0.25-0.1,0.44-0.1
					c0.14,0,0.27,0.04,0.39,0.11c0.12,0.07,0.22,0.17,0.29,0.29c0.07,0.12,0.1,0.25,0.1,0.39c-0.02,0.08-0.05,0.2-0.09,0.36
					c-0.04,0.15-0.09,0.31-0.14,0.47l-2.34,6.14c-0.2,0.54-0.4,0.96-0.59,1.27c-0.19,0.31-0.45,0.54-0.77,0.71
					c-0.32,0.17-0.75,0.25-1.29,0.25c-0.53,0-0.92-0.06-1.18-0.17c-0.26-0.11-0.4-0.32-0.4-0.63c0-0.21,0.06-0.37,0.19-0.48
					c0.12-0.11,0.31-0.17,0.56-0.17c0.1,0,0.19,0.01,0.28,0.04c0.11,0.02,0.21,0.04,0.3,0.04c0.21,0,0.37-0.03,0.49-0.09
					c0.12-0.06,0.23-0.17,0.32-0.32C235.31,477.78,235.41,477.55,235.54,477.26z"/>
			</g>
			<g>
				<path class="st3" d="M261.58,469.88h0.43v-0.54c0-0.56,0.07-1.01,0.21-1.34c0.14-0.33,0.38-0.57,0.73-0.72
					c0.34-0.15,0.8-0.23,1.4-0.23c1.05,0,1.58,0.25,1.58,0.77c0,0.17-0.05,0.31-0.17,0.43c-0.11,0.12-0.24,0.18-0.39,0.18
					c-0.07,0-0.19-0.01-0.37-0.04c-0.16-0.02-0.31-0.04-0.43-0.04c-0.32,0-0.53,0.1-0.63,0.29c-0.09,0.19-0.13,0.46-0.13,0.82v0.43
					h0.44c0.69,0,1.03,0.21,1.03,0.62c0,0.29-0.09,0.48-0.27,0.56c-0.18,0.08-0.43,0.12-0.75,0.12h-0.44v4.76
					c0,0.36-0.08,0.62-0.26,0.81c-0.17,0.19-0.38,0.28-0.65,0.28c-0.25,0-0.46-0.09-0.64-0.28c-0.17-0.19-0.25-0.45-0.25-0.81v-4.76
					h-0.49c-0.27,0-0.47-0.06-0.62-0.18c-0.14-0.12-0.22-0.28-0.22-0.47C260.67,470.1,260.98,469.88,261.58,469.88"/>
				<path class="st3" d="M267.47,474.44v1.5c0,0.36-0.09,0.64-0.26,0.82c-0.17,0.18-0.39,0.27-0.65,0.27
					c-0.27,0-0.48-0.09-0.64-0.28c-0.16-0.18-0.25-0.46-0.25-0.81v-5.01c0-0.81,0.29-1.21,0.87-1.21c0.3,0,0.51,0.09,0.65,0.28
					c0.13,0.19,0.21,0.47,0.22,0.84c0.21-0.37,0.43-0.65,0.66-0.84c0.23-0.19,0.53-0.28,0.91-0.28c0.38,0,0.74,0.09,1.1,0.28
					c0.36,0.19,0.54,0.44,0.54,0.75c0,0.22-0.08,0.4-0.23,0.54c-0.15,0.14-0.32,0.22-0.49,0.22c-0.07,0-0.23-0.04-0.48-0.13
					c-0.25-0.08-0.48-0.12-0.67-0.12c-0.26,0-0.48,0.07-0.65,0.21c-0.17,0.14-0.3,0.34-0.39,0.62c-0.09,0.27-0.15,0.6-0.19,0.97
					C267.48,473.44,267.47,473.9,267.47,474.44"/>
				<path class="st3" d="M275.73,473.82h-3.52c0.01,0.41,0.08,0.77,0.25,1.08c0.16,0.31,0.38,0.55,0.64,0.7
					c0.27,0.16,0.56,0.24,0.88,0.24c0.21,0,0.41-0.02,0.59-0.08c0.18-0.05,0.35-0.13,0.52-0.24c0.17-0.1,0.32-0.22,0.46-0.35
					c0.14-0.12,0.33-0.29,0.55-0.5c0.09-0.08,0.22-0.12,0.39-0.12c0.19,0,0.33,0.05,0.45,0.16c0.12,0.1,0.17,0.24,0.17,0.43
					c0,0.16-0.06,0.35-0.19,0.57c-0.13,0.22-0.32,0.43-0.58,0.63c-0.26,0.2-0.58,0.37-0.97,0.5c-0.39,0.13-0.84,0.2-1.34,0.2
					c-1.16,0-2.05-0.33-2.7-0.99c-0.64-0.66-0.96-1.55-0.96-2.68c0-0.53,0.08-1.02,0.24-1.48c0.16-0.46,0.39-0.84,0.69-1.17
					c0.3-0.33,0.67-0.57,1.12-0.75c0.44-0.17,0.93-0.26,1.47-0.26c0.7,0,1.31,0.15,1.81,0.45c0.5,0.29,0.88,0.68,1.13,1.15
					c0.25,0.47,0.38,0.95,0.38,1.44c0,0.45-0.13,0.74-0.39,0.88C276.56,473.75,276.2,473.82,275.73,473.82 M272.21,472.8h3.26
					c-0.04-0.61-0.21-1.07-0.49-1.38c-0.29-0.31-0.67-0.46-1.14-0.46c-0.45,0-0.82,0.15-1.1,0.46
					C272.45,471.73,272.27,472.19,272.21,472.8"/>
				<path class="st3" d="M283.21,473.82h-3.52c0.01,0.41,0.09,0.77,0.25,1.08c0.16,0.31,0.37,0.55,0.64,0.7
					c0.26,0.16,0.56,0.24,0.88,0.24c0.21,0,0.41-0.02,0.59-0.08c0.18-0.05,0.35-0.13,0.52-0.24c0.17-0.1,0.32-0.22,0.46-0.35
					c0.14-0.12,0.32-0.29,0.55-0.5c0.09-0.08,0.22-0.12,0.39-0.12c0.19,0,0.33,0.05,0.45,0.16c0.12,0.1,0.17,0.24,0.17,0.43
					c0,0.16-0.06,0.35-0.19,0.57c-0.12,0.22-0.31,0.43-0.57,0.63c-0.26,0.2-0.58,0.37-0.97,0.5c-0.39,0.13-0.84,0.2-1.34,0.2
					c-1.15,0-2.05-0.33-2.69-0.99c-0.64-0.66-0.96-1.55-0.96-2.68c0-0.53,0.08-1.02,0.24-1.48c0.16-0.46,0.39-0.84,0.69-1.17
					c0.3-0.33,0.68-0.57,1.12-0.75c0.44-0.17,0.93-0.26,1.48-0.26c0.7,0,1.3,0.15,1.81,0.45c0.5,0.29,0.88,0.68,1.12,1.15
					c0.25,0.47,0.38,0.95,0.38,1.44c0,0.45-0.13,0.74-0.39,0.88C284.04,473.75,283.68,473.82,283.21,473.82 M279.69,472.8h3.26
					c-0.04-0.61-0.21-1.07-0.5-1.38c-0.29-0.31-0.67-0.46-1.14-0.46c-0.45,0-0.82,0.15-1.1,0.46
					C279.93,471.73,279.75,472.19,279.69,472.8"/>
				<path class="st3" d="M287.15,470.73v0.21c0.34-0.42,0.69-0.72,1.06-0.92c0.36-0.2,0.78-0.3,1.24-0.3c0.55,0,1.06,0.14,1.53,0.43
					c0.47,0.29,0.83,0.7,1.1,1.25c0.27,0.55,0.41,1.2,0.41,1.95c0,0.55-0.08,1.06-0.23,1.53c-0.16,0.46-0.37,0.85-0.64,1.17
					c-0.27,0.31-0.59,0.56-0.96,0.72c-0.37,0.17-0.77,0.25-1.2,0.25c-0.51,0-0.95-0.1-1.29-0.31c-0.35-0.2-0.68-0.51-1-0.9v2.7
					c0,0.79-0.29,1.18-0.86,1.18c-0.34,0-0.56-0.1-0.67-0.3c-0.11-0.21-0.16-0.5-0.16-0.89v-7.76c0-0.34,0.07-0.6,0.22-0.77
					c0.15-0.17,0.36-0.25,0.61-0.25c0.26,0,0.46,0.09,0.62,0.26C287.07,470.16,287.15,470.4,287.15,470.73 M290.67,473.35
					c0-0.48-0.08-0.88-0.22-1.22c-0.14-0.34-0.34-0.6-0.6-0.78c-0.25-0.18-0.54-0.28-0.85-0.28c-0.49,0-0.91,0.2-1.25,0.58
					c-0.34,0.39-0.51,0.97-0.51,1.73c0,0.71,0.17,1.27,0.51,1.67c0.34,0.4,0.75,0.6,1.26,0.6c0.3,0,0.57-0.09,0.83-0.26
					c0.26-0.17,0.46-0.44,0.61-0.78C290.59,474.26,290.67,473.83,290.67,473.35"/>
				<path class="st3" d="M294.29,468.89c-0.25,0-0.46-0.08-0.64-0.23c-0.18-0.15-0.27-0.37-0.27-0.65c0-0.26,0.09-0.46,0.27-0.63
					c0.18-0.16,0.39-0.25,0.63-0.25c0.24,0,0.44,0.07,0.62,0.22c0.18,0.15,0.27,0.37,0.27,0.66c0,0.28-0.09,0.49-0.26,0.65
					C294.74,468.81,294.53,468.89,294.29,468.89 M295.18,470.74v5.2c0,0.36-0.08,0.63-0.26,0.81c-0.17,0.19-0.39,0.28-0.65,0.28
					c-0.26,0-0.47-0.09-0.64-0.28c-0.16-0.19-0.25-0.46-0.25-0.81v-5.15c0-0.35,0.08-0.62,0.25-0.8c0.17-0.18,0.38-0.27,0.64-0.27
					c0.26,0,0.48,0.09,0.65,0.27C295.09,470.17,295.18,470.42,295.18,470.74"/>
				<path class="st3" d="M300.97,476.21l-1.58-2.61l-0.98,0.92v1.43c0,0.35-0.09,0.61-0.28,0.8c-0.18,0.19-0.39,0.28-0.63,0.28
					c-0.28,0-0.5-0.09-0.65-0.28c-0.16-0.18-0.24-0.46-0.24-0.81v-7.67c0-0.4,0.08-0.7,0.23-0.91c0.16-0.21,0.38-0.31,0.66-0.31
					c0.28,0,0.49,0.09,0.66,0.28c0.16,0.19,0.25,0.47,0.25,0.83v4.36l2.02-2.12c0.25-0.26,0.44-0.44,0.57-0.54
					c0.13-0.1,0.29-0.14,0.48-0.14c0.22,0,0.41,0.07,0.56,0.21c0.15,0.14,0.22,0.32,0.22,0.54c0,0.26-0.24,0.62-0.73,1.06
					l-0.96,0.87l1.84,2.9c0.13,0.22,0.23,0.38,0.29,0.49c0.06,0.11,0.09,0.22,0.09,0.32c0,0.29-0.08,0.51-0.24,0.67
					c-0.16,0.16-0.36,0.25-0.61,0.25c-0.22,0-0.39-0.06-0.51-0.18C301.34,476.74,301.17,476.52,300.97,476.21"/>
				<path class="st3" d="M304.88,477.03c-0.27,0-0.5-0.09-0.7-0.26c-0.2-0.17-0.3-0.42-0.3-0.74c0-0.27,0.1-0.5,0.29-0.69
					c0.19-0.19,0.42-0.29,0.7-0.29c0.28,0,0.51,0.1,0.71,0.29c0.19,0.19,0.29,0.42,0.29,0.69c0,0.31-0.1,0.56-0.29,0.74
					C305.37,476.95,305.14,477.03,304.88,477.03"/>
				<path class="st3" d="M313.82,474.81c0,0.22-0.07,0.46-0.2,0.72c-0.13,0.26-0.34,0.5-0.62,0.73c-0.27,0.23-0.62,0.42-1.04,0.56
					c-0.42,0.14-0.89,0.21-1.41,0.21c-1.11,0-1.98-0.32-2.6-0.97c-0.62-0.65-0.93-1.52-0.93-2.61c0-0.74,0.14-1.39,0.43-1.96
					c0.28-0.56,0.7-1,1.24-1.31c0.54-0.31,1.19-0.47,1.94-0.47c0.47,0,0.89,0.07,1.28,0.21c0.39,0.13,0.72,0.31,0.99,0.53
					c0.27,0.22,0.48,0.44,0.62,0.69c0.14,0.24,0.21,0.47,0.21,0.68c0,0.21-0.08,0.4-0.24,0.55c-0.16,0.15-0.36,0.22-0.58,0.22
					c-0.15,0-0.28-0.04-0.38-0.12c-0.1-0.08-0.21-0.2-0.33-0.37c-0.22-0.33-0.45-0.58-0.69-0.75c-0.24-0.17-0.54-0.25-0.91-0.25
					c-0.53,0-0.96,0.21-1.29,0.62c-0.33,0.41-0.49,0.98-0.49,1.7c0,0.34,0.04,0.65,0.13,0.93c0.08,0.28,0.2,0.52,0.36,0.72
					c0.16,0.2,0.35,0.35,0.57,0.45c0.22,0.11,0.47,0.16,0.74,0.16c0.36,0,0.67-0.08,0.93-0.25c0.26-0.17,0.49-0.42,0.68-0.76
					c0.11-0.2,0.23-0.36,0.35-0.47c0.13-0.11,0.28-0.17,0.47-0.17c0.22,0,0.4,0.08,0.54,0.25
					C313.75,474.44,313.82,474.62,313.82,474.81"/>
				<path class="st3" d="M321.58,473.38c0,0.53-0.09,1.03-0.25,1.48c-0.17,0.45-0.41,0.84-0.73,1.16c-0.31,0.33-0.69,0.57-1.13,0.75
					c-0.44,0.17-0.93,0.26-1.48,0.26c-0.54,0-1.04-0.09-1.47-0.26c-0.43-0.17-0.81-0.43-1.13-0.75c-0.32-0.33-0.56-0.72-0.73-1.16
					c-0.16-0.45-0.24-0.94-0.24-1.48c0-0.55,0.08-1.04,0.25-1.5c0.17-0.45,0.41-0.84,0.72-1.16c0.31-0.32,0.69-0.57,1.13-0.74
					c0.45-0.17,0.94-0.26,1.47-0.26c0.54,0,1.04,0.09,1.48,0.26c0.44,0.17,0.82,0.43,1.14,0.75c0.32,0.33,0.56,0.71,0.72,1.16
					C321.5,472.34,321.58,472.84,321.58,473.38 M319.78,473.38c0-0.74-0.16-1.3-0.48-1.71c-0.32-0.41-0.76-0.62-1.3-0.62
					c-0.35,0-0.66,0.09-0.93,0.27c-0.27,0.18-0.47,0.45-0.62,0.81c-0.15,0.36-0.22,0.77-0.22,1.25c0,0.47,0.07,0.88,0.21,1.23
					c0.14,0.35,0.35,0.62,0.62,0.81c0.27,0.18,0.58,0.28,0.94,0.28c0.54,0,0.98-0.21,1.3-0.62
					C319.61,474.67,319.78,474.1,319.78,473.38"/>
				<path class="st3" d="M328.44,473.51v2.39c0,0.38-0.08,0.66-0.25,0.85c-0.17,0.19-0.4,0.28-0.68,0.28
					c-0.27,0-0.49-0.09-0.66-0.28c-0.17-0.19-0.26-0.47-0.26-0.85v-2.86c0-0.46-0.02-0.81-0.04-1.06c-0.03-0.25-0.12-0.45-0.25-0.61
					c-0.13-0.16-0.35-0.24-0.65-0.24c-0.59,0-0.97,0.2-1.16,0.61c-0.19,0.4-0.28,0.98-0.28,1.74v2.43c0,0.37-0.09,0.66-0.25,0.85
					c-0.17,0.19-0.39,0.29-0.67,0.29c-0.27,0-0.5-0.1-0.67-0.29c-0.17-0.19-0.26-0.47-0.26-0.85v-5.14c0-0.34,0.08-0.6,0.23-0.77
					c0.16-0.18,0.36-0.26,0.62-0.26c0.25,0,0.45,0.08,0.62,0.25c0.17,0.16,0.25,0.39,0.25,0.68v0.17c0.32-0.37,0.65-0.65,1-0.82
					c0.36-0.18,0.75-0.27,1.19-0.27c0.45,0,0.84,0.09,1.16,0.27c0.33,0.18,0.59,0.45,0.8,0.82c0.3-0.37,0.63-0.64,0.98-0.82
					c0.35-0.18,0.73-0.27,1.15-0.27c0.49,0,0.92,0.1,1.27,0.29c0.35,0.19,0.62,0.47,0.8,0.83c0.15,0.33,0.23,0.84,0.23,1.54v3.51
					c0,0.38-0.08,0.66-0.25,0.85c-0.17,0.19-0.4,0.28-0.68,0.28c-0.27,0-0.5-0.1-0.67-0.29c-0.17-0.19-0.26-0.47-0.26-0.85v-3.02
					c0-0.39-0.02-0.7-0.05-0.93c-0.03-0.23-0.12-0.43-0.27-0.59c-0.15-0.16-0.37-0.24-0.66-0.24c-0.24,0-0.46,0.08-0.68,0.21
					c-0.21,0.14-0.38,0.33-0.5,0.56C328.51,472.2,328.44,472.74,328.44,473.51"/>
			</g>
			<g>
				<path class="st3" d="M244.75,472.94c0,0,0-0.01,0-0.01C244.75,472.94,244.75,472.94,244.75,472.94z"/>
				<path class="st3" d="M244.84,473.52C244.85,473.52,244.85,473.52,244.84,473.52c-0.03-0.16-0.06-0.33-0.08-0.49
					C244.79,473.19,244.81,473.36,244.84,473.52z"/>
				<path class="st3" d="M245.44,475.19c0-0.01-0.01-0.01-0.01-0.02C245.43,475.17,245.44,475.18,245.44,475.19z"/>
				<path class="st3" d="M245.38,475.08c-0.02-0.03-0.03-0.06-0.05-0.09C245.35,475.02,245.37,475.04,245.38,475.08z"/>
				<path class="st3" d="M245.01,474.16c0.09,0.28,0.19,0.55,0.32,0.8C245.21,474.7,245.1,474.43,245.01,474.16
					C245.01,474.16,245.01,474.16,245.01,474.16z"/>
				<path class="st3" d="M251.71,466.06c0.35,0,0.6,0.03,0.9,0.08l0.08-0.53c0,0-0.81-0.25-1.88-0.16l-0.08-0.29
					c0.33-0.07,0.58-0.37,0.58-0.72c0-0.4-0.33-0.73-0.73-0.73s-0.73,0.33-0.73,0.73c0,0.35,0.25,0.65,0.58,0.72l0.09,0.32
					c-1.13,0.16-2.04,0.6-2.04,0.6l0.16,0.49c0.69-0.23,1.28-0.37,1.82-0.43C250.99,466.08,251.39,466.06,251.71,466.06z"/>
				<path class="st3" d="M245.43,468.73L245.43,468.73c0.03-0.04,0.06-0.07,0.08-0.1l-0.22-0.15l-0.34-0.25
					c-0.02,0.03-0.55,0.52-0.97,1.42c-0.02-0.03-0.04-0.06-0.06-0.08c-0.13-0.14-0.3-0.21-0.53-0.2c0,0-0.01,0-0.01,0
					c-0.14,0-0.23-0.05-0.3-0.1c0.06-0.08,0.1-0.18,0.1-0.29c0-0.25-0.21-0.46-0.46-0.46c-0.26,0-0.46,0.21-0.46,0.46
					c0,0.26,0.21,0.46,0.46,0.46c0.04,0,0.08-0.01,0.12-0.01c0.11,0.13,0.3,0.24,0.56,0.23c0.14,0,0.24,0.03,0.3,0.11
					c0.08,0.08,0.1,0.2,0.11,0.3c0,0,0,0,0,0c-0.3,0.83-0.22,1.85-0.22,1.85l0.73,0.03c0.02-0.37,0.07-1.03,0.26-1.55
					C244.95,469.38,245.41,468.76,245.43,468.73z"/>
				<path class="st3" d="M258.09,466.67c-0.26,0-0.46,0.21-0.46,0.46c0,0.04,0.01,0.08,0.02,0.11c-0.13,0.11-0.24,0.3-0.23,0.56
					c0,0.14-0.03,0.24-0.11,0.3c-0.06,0.05-0.13,0.08-0.21,0.1c-0.55-0.77-1.22-1.23-1.22-1.23l-0.53,0.56
					c0.4,0.36,0.8,0.82,1.2,1.38c0.27,0.39,0.56,0.89,0.79,1.4l0.71-0.34c0,0-0.33-0.8-0.78-1.52c0.08-0.03,0.16-0.07,0.23-0.13
					c0.14-0.13,0.21-0.3,0.2-0.53c0-0.14,0.05-0.24,0.1-0.31c0.08,0.06,0.18,0.1,0.29,0.1c0.26,0,0.46-0.21,0.46-0.46
					C258.56,466.87,258.35,466.67,258.09,466.67z"/>
				<path class="st3" d="M256.25,473.05c-0.98,0.48-2.58,1.1-4.7,1.4c-0.83,0.11-1.64,0.16-2.38,0.16c-0.96,0-1.81-0.07-2.47-0.15
					c-0.75-0.09-1.33-0.21-1.69-0.29c0.09,0.27,0.19,0.54,0.31,0.8c0,0.01,0.01,0.02,0.01,0.02c0.02,0.03,0.03,0.06,0.05,0.09
					c0.01,0.03,0.03,0.06,0.04,0.09c0,0.01,0.01,0.02,0.01,0.02c0.21,0.4,0.46,0.76,0.75,1.07c1,1.09,2.02,1.26,2.02,1.27l0.02,0
					l0.01,0c0.01,0,0.91,0.3,2.28,0.3c1.35,0,2.67-0.27,3.93-0.81c0.93-0.48,1.82-1.2,2.26-1.85c0.34-0.5,0.58-1.04,0.73-1.59
					c0.08-0.29,0.14-0.77,0.1-1.27C257.27,472.5,256.84,472.76,256.25,473.05z"/>
				<path class="st3" d="M245.74,468.96c-0.03,0.04-0.45,0.64-0.79,1.56c-0.25,0.69-0.24,1.69-0.24,1.7v0c0,0.24,0.01,0.47,0.04,0.7
					c0,0,0,0.01,0,0.01c0,0.03,0.01,0.06,0.01,0.09c0.02,0.16,0.05,0.32,0.08,0.49c0.49,0.12,3.38,0.8,6.62,0.35
					c2.03-0.28,3.57-0.88,4.51-1.34c0.78-0.38,1.28-0.72,1.47-0.86c-0.19-0.71-0.72-1.83-1.21-2.53c-1.39-1.99-2.89-2.5-3.66-2.62
					c-0.29-0.05-0.53-0.08-0.86-0.08c-0.31,0-0.69,0.03-1.21,0.08c-0.52,0.05-1.09,0.19-1.75,0.41c-0.93,0.31-1.78,0.8-2.45,1.42
					l-0.02,0.02C246.18,468.47,245.98,468.66,245.74,468.96z M254.25,468.5c0.67,0,1.21,0.54,1.21,1.21c0,0.67-0.54,1.21-1.21,1.21
					c-0.67,0-1.21-0.54-1.21-1.21C253.04,469.04,253.58,468.5,254.25,468.5z M248.53,468.45c1.08,0,1.95,0.88,1.95,1.95
					s-0.87,1.95-1.95,1.95c-1.08,0-1.95-0.87-1.95-1.95S247.46,468.45,248.53,468.45z"/>
			</g>
		</g>
	</g>
</g>
</svg>
