<svg id="Layer_1" enable-background="new 0 0 512.008 512.008" height="512" viewBox="0 0 512.008 512.008" width="512" xmlns="http://www.w3.org/2000/svg"><g><path d="m111.6 338.938c-5.857-5.857-15.355-5.857-21.213 0s-5.858 15.355 0 21.213l61.47 61.47c2.929 2.929 6.768 4.394 10.606 4.394s7.678-1.465 10.606-4.394c5.858-5.857 5.858-15.355 0-21.213z"/><path d="m507.614 102.094-10.459-10.459 1.056-.895c3.201-2.71 5.121-6.636 5.294-10.826s-1.415-8.262-4.381-11.228l-55.804-55.803c-2.965-2.966-7.036-4.56-11.227-4.381-4.19.174-8.117 2.094-10.827 5.294l-.895 1.056-10.458-10.459c-5.857-5.857-15.355-5.857-21.213 0-5.857 5.857-5.857 15.355 0 21.213l12.219 12.219-13.255 15.654-11.333-11.333c-5.857-5.857-15.355-5.857-21.213 0s-5.858 15.355 0 21.213l13.093 13.093-13.255 15.654-9.424-9.425c-5.857-5.858-15.355-5.858-21.213 0-5.858 5.857-5.858 15.354 0 21.213l10.342 10.342-62.755 62.755c-12.532-5.713-25.841-9.215-39.375-10.228-28.998-2.171-55.544 7.214-74.755 26.426-6.65 6.65-12.189 14.284-16.461 22.688-5.997 11.797-17.508 19.61-30.042 20.393-30.135 1.882-56.794 13.606-77.097 33.908-24.567 24.569-36.565 58.579-33.781 95.764 2.72 36.341 19.329 71.466 46.767 98.903 27.438 27.438 62.563 44.047 98.903 46.768 3.527.264 7.024.395 10.488.395 33.063 0 63.038-11.939 85.276-34.178 20.303-20.303 32.028-46.962 33.908-77.097.782-12.534 8.596-24.045 20.392-30.041 8.404-4.271 16.038-9.811 22.689-16.462 29.19-29.189 34.102-74.513 16.152-114.084l62.8-62.8 10.342 10.342c2.929 2.93 6.768 4.394 10.607 4.394 3.838 0 7.678-1.465 10.606-4.394 5.858-5.857 5.858-15.354 0-21.213l-9.426-9.426 15.654-13.254 13.094 13.094c2.929 2.929 6.768 4.394 10.606 4.394s7.678-1.465 10.606-4.394c5.858-5.857 5.858-15.355 0-21.213l-11.333-11.333 15.654-13.255 12.22 12.22c2.929 2.929 6.768 4.394 10.606 4.394s7.678-1.465 10.606-4.394c5.86-5.858 5.86-15.356.002-21.214zm-210.008 230.923c-4.415 4.415-9.485 8.093-15.07 10.932-21.221 10.787-35.299 31.83-36.739 54.915-1.418 22.728-10.125 42.698-25.18 57.753-38.393 38.393-106.688 32.569-152.242-12.984-45.552-45.553-51.377-113.848-12.984-152.243 15.054-15.054 35.025-23.761 57.752-25.18 23.085-1.439 44.128-15.518 54.916-36.739 2.839-5.585 6.517-10.655 10.931-15.069 11.678-11.678 27.658-17.941 45.477-17.941 1.92 0 3.866.072 5.826.22 6.217.465 12.383 1.665 18.406 3.519l-44.042 44.042c-10.107 2.081-19.397 7.054-26.862 14.519-10.077 10.076-15.627 23.475-15.627 37.727 0 14.251 5.55 27.649 15.627 37.726 10.401 10.401 24.064 15.602 37.726 15.602 13.663 0 27.325-5.2 37.727-15.602 7.465-7.465 12.438-16.755 14.519-26.862l44.027-44.027c7.87 25.442 3.456 52.048-14.188 69.692zm-65.571-53.044c4.411 4.411 6.84 10.275 6.84 16.514 0 6.237-2.429 12.102-6.84 16.513-9.105 9.105-23.921 9.105-33.027 0-4.411-4.411-6.84-10.275-6.84-16.513s2.429-12.103 6.84-16.514 10.275-6.841 16.513-6.841c6.238.001 12.103 2.43 16.514 6.841zm30.116-9.433c-2.381-4.264-5.355-8.231-8.903-11.779-3.549-3.549-7.516-6.523-11.78-8.904l114.407-114.408 20.684 20.684zm136.464-134.777-22.371-22.371 57.386-67.773 32.758 32.758z"/></g></svg>